#N canvas 907 85 678 862 12;
#X obj 26 322 vstplugin~;
#X f 15;
#X msg 26 115 open -e AmpliTube_4.vst3;
#N canvas 101 355 513 414 message-out 0;
#X obj 20 17 inlet;
#X obj 20 63 s \$0-program-data;
#X obj 20 40 route program_data bank_data, f 39;
#X obj 135 63 s \$0-bank-data;
#X obj 278 135 print;
#X obj 278 114 spigot 1;
#X obj 337 114 tgl 15 0 empty empty empty 17 7 0 10 #fcfcfc #000000
#000000 0 1;
#X text 358 113 print messages;
#X obj 251 86 s \$0-out;
#X obj 251 63 t a a;
#X msg 28 178 param_automated <index> <value>;
#X msg 28 204 latency <numsamples>;
#X msg 30 257 midi <bytes...>;
#X msg 29 284 sysex <bytes...>;
#X text 233 172 a parameter has been changed in the GUI (or by changing
a linked parameter)., f 40;
#X text 162 204 the plugin's internal processing latency has changed
;
#X text 139 257 a MIDI message sent by the plugin;
#X text 139 284 a SysEx message sent by the plugin;
#X text 28 153 events:;
#X text 163 222 NOTE: the value includes the additional latency caused
by multithreading (see the "-t" flag for "open"), f 55;
#X msg 29 337 crash;
#X text 312 85 goes to vstpresetbrowser;
#X text 23 87 see [pd preset];
#X text 83 338 the plugin subprocess has crashed.;
#X text 84 356 This is only sent for bridged or sandboxed plugins \,
because normal plugins would simply crash Pd., f 52;
#X msg 29 311 update;
#X text 87 312 multiple parameters have changed internally;
#X connect 0 0 2 0;
#X connect 2 0 1 0;
#X connect 2 1 3 0;
#X connect 2 2 9 0;
#X connect 5 0 4 0;
#X connect 6 0 5 1;
#X connect 9 0 8 0;
#X connect 9 1 5 0;
#X restore 128 349 pd message-out;
#X obj 41 190 bng 15 250 50 0 empty empty empty 17 7 0 10 #fcfcfc #000000
#000000;
#X obj 26 88 loadbang;
#X obj 247 302 readsf~;
#X obj 247 213 pack f f;
#X obj 93 52 bng 30 250 50 0 empty empty empty 17 7 0 10 #fcfcfc #000000
#000000;
#X obj 333 145 + 1;
#X obj 333 176 sel 1, f 6;
#X obj 246 146 + 1;
#X obj 246 111 counter 5;
#X obj 333 111 counter 21;
#X obj 271 413 s $-0 next;
#X obj 41 164 r $-0 next;
#X obj 353 412 counter;
#X msg 590 607 stop;
#X obj 333 71 bng 30 250 50 0 empty empty empty 17 7 0 10 #fcfcfc #000000
#000000;
#X obj 335 626 writesf~ 2;
#X obj 353 384 bng 15 250 50 0 empty empty empty 17 7 0 10 #fcfcfc
#000000 #000000;
#X obj 335 527 pack f f f;
#X msg 247 258 open di/\$2-\$1.wav \, 1;
#X floatatom 383 164 5 0 0 0 - - - 0;
#X floatatom 205 165 5 0 0 0 - - - 0;
#X obj 93 88 s reset;
#X obj 419 365 r reset;
#X obj 276 81 r reset;
#X obj 328 232 s cord;
#X obj 368 495 unpack f f;
#X obj 590 321 bng 15 250 50 0 empty empty empty 17 7 0 10 #fcfcfc
#000000 #000000;
#X obj 335 465 f;
#X obj 247 450 bng 15 250 50 0 empty empty empty 17 7 0 10 #fcfcfc
#000000 #000000;
#X obj 353 356 loadbang;
#X obj 565 52 gate;
#X obj 565 15 tgl 30 0 empty empty empty 17 7 0 10 #fcfcfc #000000
#000000 0 1;
#X text 605 19 on/off;
#X obj 353 436 + 1;
#X floatatom 293 484 5 0 0 0 - - - 0;
#X text 367 72 start;
#X text 125 60 reset;
#X obj 368 465 r cord;
#X obj 25 443 soundfiler;
#N canvas 0 50 450 250 (subpatch) 0;
#X array File 264600 float 2;
#X coords 0 1 264600 -1 200 140 1 0 0;
#X restore 24 484 graph;
#X obj 25 392 r cord;
#X msg 25 416 read -resize di/\$2-\$1.wav File;
#X obj 73 719 tabwrite~ Process;
#X obj 73 692 metro 20;
#X obj 73 670 tgl 15 0 empty empty empty 17 7 0 10 #fcfcfc #000000
#000000 0 1;
#N canvas 0 50 450 250 (subpatch) 0;
#X array Process 100 float 3;
#A 0 0.0152787 0.0108161 0.00664716 0.00334511 0.00115974 8.4141e-05
-1.15163e-05 0.000737888 0.00225039 0.00450001 0.00746854 0.0110478
0.0149393 0.0186276 0.0214598 0.0228103 0.0222799 0.019855 0.015942
0.0112435 0.00652637 0.00238704 -0.00088459 -0.00330028 -0.00506002
-0.00639397 -0.0074236 -0.00809586 -0.00822372 -0.00761812 -0.00623684
-0.00426352 -0.00207959 -0.000145599 0.00116162 0.00168238 0.00150436
0.000878544 8.0709e-05 -0.000706055 -0.00143235 -0.00212802 -0.00279675
-0.00334717 -0.00361433 -0.00344813 -0.0028002 -0.00176025 -0.000537842
0.000595359 0.00138515 0.00165954 0.00135051 0.000494551 -0.000761187
-0.00216843 -0.00342212 -0.00421661 -0.00430675 -0.00359841 -0.00224427
-0.000660962 0.000578447 0.000931873 7.57268e-05 -0.00196084 -0.00475463
-0.00758535 -0.00967354 -0.0104703 -0.00986282 -0.00820672 -0.00618652
-0.00457379 -0.00397225 -0.00464461 -0.00649314 -0.00917617 -0.0122605
-0.0153376 -0.018089 -0.0202897 -0.0217648 -0.0223613 -0.0219753 -0.0206121
-0.0184362 -0.0157788 -0.0130881 -0.0108239 -0.00932565 -0.00870823
-0.00884735 -0.00947306 -0.0103128 -0.0112004 -0.0121007 -0.0130464
-0.0140264 -0.0149186;
#X coords 0 1 100 -1 200 140 1;
#X restore 251 684 graph;
#X obj 25 667 +~;
#X obj 26 699 /~ 2;
#X obj 25 358 s~ ch1;
#X obj 24 637 r~ ch1;
#X obj 78 358 s~ ch2;
#X obj 77 637 r~ ch2;
#X obj 334 593 r~ ch1;
#X obj 403 593 r~ ch2;
#X obj 27 748 r~ ch1;
#X obj 79 748 r~ ch2;
#X text 540 801 using Amplitube 4;
#X obj 137 765 loadbang;
#X msg 137 795 \; pd dsp 1, f 11;
#X text 469 779 Patch for data augmentation;
#X obj 130 637 loadbang;
#X text 423 164 fret;
#X text 156 165 string;
#X text 242 484 preset;
#X obj 41 242 del 10;
#X msg 104 243 midi_cc 1 1 127;
#X msg 41 269 midi_cc 1 1 0;
#X floatatom 451 455 5 0 0 0 - - - 0;
#X obj 48 773 hsl 25 15 0.0001 1 1 1 empty empty empty -2 -8 0 10 #fcfcfc
#000000 #000000 0 1;
#X obj 27 797 *~;
#X obj 79 796 *~;
#X obj 28 823 dac~;
#X msg 335 558 open -bytes 3 result/\$1_\$3-\$2.wav \, start;
#X obj 293 358 + 1;
#X obj 293 330 counter 131;
#X obj 330 281 r reset;
#X obj 330 305 bng 15 250 50 0 empty empty empty 17 7 0 10 #fcfcfc
#000000 #000000;
#X floatatom 206 377 5 0 0 0 - - - 0;
#X obj 271 385 sel 132;
#X connect 0 0 51 0;
#X connect 0 1 53 0;
#X connect 0 2 2 0;
#X connect 1 0 0 0;
#X connect 3 0 68 0;
#X connect 3 0 67 0;
#X connect 4 0 1 0;
#X connect 5 0 0 0;
#X connect 5 1 29 0;
#X connect 5 1 77 0;
#X connect 6 0 21 0;
#X connect 6 0 27 0;
#X connect 6 0 31 0;
#X connect 7 0 24 0;
#X connect 8 0 9 0;
#X connect 8 0 6 0;
#X connect 8 0 22 0;
#X connect 9 0 11 0;
#X connect 10 0 6 1;
#X connect 10 0 23 0;
#X connect 11 0 10 0;
#X connect 12 0 8 0;
#X connect 14 0 3 0;
#X connect 15 0 36 0;
#X connect 16 0 18 0;
#X connect 17 0 12 0;
#X connect 19 0 15 0;
#X connect 20 0 75 0;
#X connect 21 0 5 0;
#X connect 25 0 15 2;
#X connect 25 0 19 0;
#X connect 26 0 11 2;
#X connect 26 0 12 2;
#X connect 28 0 20 1;
#X connect 28 1 20 2;
#X connect 29 0 16 0;
#X connect 29 0 33 1;
#X connect 30 0 20 0;
#X connect 30 0 37 0;
#X connect 31 0 30 0;
#X connect 32 0 19 0;
#X connect 33 0 17 0;
#X connect 34 0 33 0;
#X connect 36 0 70 0;
#X connect 36 0 30 1;
#X connect 40 0 28 0;
#X connect 43 0 44 0;
#X connect 44 0 41 0;
#X connect 46 0 45 0;
#X connect 47 0 46 0;
#X connect 49 0 50 0;
#X connect 50 0 45 0;
#X connect 52 0 49 0;
#X connect 54 0 49 1;
#X connect 55 0 18 0;
#X connect 56 0 18 1;
#X connect 57 0 72 0;
#X connect 58 0 73 0;
#X connect 60 0 61 0;
#X connect 63 0 47 0;
#X connect 67 0 69 0;
#X connect 68 0 0 0;
#X connect 69 0 0 0;
#X connect 71 0 72 1;
#X connect 71 0 73 1;
#X connect 72 0 74 0;
#X connect 73 0 74 1;
#X connect 75 0 18 0;
#X connect 76 0 80 0;
#X connect 76 0 81 0;
#X connect 77 0 76 0;
#X connect 78 0 79 0;
#X connect 79 0 77 2;
#X connect 81 0 19 0;
#X connect 81 0 13 0;
#X connect 81 0 31 0;
